<?xml version="1.0" standalone="no"?>
<!DOCTYPE svg PUBLIC "-//W3C//DTD SVG 20010904//EN"
 "http://www.w3.org/TR/2001/REC-SVG-20010904/DTD/svg10.dtd">
<svg version="1" xmlns="http://www.w3.org/2000/svg"
 width="64pt" height="64pt" viewBox="0 0 64 64"
 preserveAspectRatio="xMidYMid meet">

<text font-size="64.3" textLength="61.6" fill="#ffffff" x="5" y="47.2">
    Q
</text>

<g transform="translate(0,64) scale(0.1,-0.1)"
fill="#dd0031" stroke="none">
<path d="M 196 578 c -58 -16 -120 -82 -135 -145 c -22 -90 21 -183 104 -223 c 39 -19 58 -22 123 -18 c 64 4 96 13 190 54 c 104 45 112 51 112 76 c 0 16 -2 28 -5 28 c -2 0 -56 -23 -120 -50 c -183 -80 -274 -77 -333 10 c -20 29 -23 44 -20 88 c 4 45 10 59 40 89 c 45 44 114 56 168 28 c 32 -17 34 -17 47 1 c 12 17 11 21 -7 36 c -22 18 -84 39 -110 37 c -8 -1 -33 -6 -54 -11 z"/>
<path d="M 541 496 c -6 -7 -9 -21 -5 -30 c 8 -21 -5 -21 -21 1 c -17 22 -49 10 -42 -17 c 3 -11 1 -22 -4 -25 c -8 -5 6 -49 21 -68 c 4 -4 27 2 53 13 c 46 21 47 21 47 68 c 0 62 -23 89 -49 58 z"/>
<path d="M 374 425 c -4 -8 -4 -22 0 -30 c 3 -8 1 -15 -3 -15 c -5 0 -11 7 -15 15 c -3 8 -14 15 -25 15 c -22 0 -34 -23 -20 -37 c 6 -6 4 -14 -6 -23 c -18 -15 -20 -54 -2 -68 c 9 -8 32 -2 82 20 c 39 17 72 32 74 34 c 7 7 -18 63 -38 83 c -25 25 -39 27 -47 6 z"/>
<path d="M 52 165 c 3 -110 3 -110 28 -110 c 24 0 25 2 28 80 c 3 78 2 81 -28 110 l -31 29 l 3 -109 z"/>
<path d="M 546 247 c -14 -10 -16 -26 -14 -102 c 3 -89 3 -90 28 -90 c 25 0 25 1 28 103 c 3 107 -2 118 -42 89 z"/>
<path d="M 307 163 c -15 -4 -17 -13 -15 -56 c 3 -48 5 -52 28 -52 c 23 0 25 4 28 58 c 3 59 1 61 -41 50 z"/>
</g>
</svg>
